# xmcd
#
# Track frame offsets:
#	150
#	14960
#	27294
#	43327
#	55373
#	67654
#	79040
#	89483
#	103658
#	118183
#	131516
#	145186
#	159185
#	175836
#
# Disc length: 2566 seconds
#
# Revision: 2
# Processed by: cddbd v1.5.2PL0 Copyright (c) Steve Scherf et al.
# Submitted via: EasyCDDAExtractor 9.0.0.1
#
DISCID=be0a040e
DTITLE=San Marino - Coração de Pedra
DYEAR=2003
DGENRE=Country
TTITLE0=Essa Cama Eu Não Vendo
TTITLE1=Mulher Transgênica
TTITLE2=Coração de Pedra
TTITLE3=Vida de Solteiro
TTITLE4=Entornando o Caldo
TTITLE5=Devolva-me
TTITLE6=Ela Pirou
TTITLE7=Fofoqueira
TTITLE8=Daí Qui Miorô
TTITLE9=Latinha na Goteira
TTITLE10=Feitiço
TTITLE11=Remédio Pra Minha Dor
TTITLE12=Foto 3x4 (acústico)
TTITLE13=Foto 3x4 (instrumental)
EXTD=
EXTT0=
EXTT1=
EXTT2=
EXTT3=
EXTT4=
EXTT5=
EXTT6=
EXTT7=
EXTT8=
EXTT9=
EXTT10=
EXTT11=
EXTT12=
EXTT13=
PLAYORDER=
